<?xml version="1.0" encoding="UTF-8" standalone="no"?>
<!-- Created with Inkscape (http://www.inkscape.org/) -->

<svg
   width="2530.29"
   height="1600"
   viewBox="0 0 669.47256 423.33335"
   version="1.1"
   id="svg5"
   inkscape:version="1.1 (c68e22c387, 2021-05-23)"
   sodipodi:docname="Aviva-Logo.svg"
   xmlns:inkscape="http://www.inkscape.org/namespaces/inkscape"
   xmlns:sodipodi="http://sodipodi.sourceforge.net/DTD/sodipodi-0.dtd"
   xmlns="http://www.w3.org/2000/svg"
   xmlns:svg="http://www.w3.org/2000/svg">
  <sodipodi:namedview
     id="namedview7"
     pagecolor="#ffffff"
     bordercolor="#999999"
     borderopacity="1"
     inkscape:pageshadow="0"
     inkscape:pageopacity="0"
     inkscape:pagecheckerboard="0"
     inkscape:document-units="px"
     showgrid="false"
     units="px"
     width="2530.29px"
     inkscape:snap-midpoints="false"
     inkscape:snap-smooth-nodes="false"
     inkscape:snap-intersection-paths="false"
     inkscape:object-paths="true"
     inkscape:snap-bbox="false"
     inkscape:snap-bbox-midpoints="false"
     inkscape:zoom="0.19420595"
     inkscape:cx="1210.0556"
     inkscape:cy="1022.1108"
     inkscape:window-width="1360"
     inkscape:window-height="705"
     inkscape:window-x="-8"
     inkscape:window-y="-8"
     inkscape:window-maximized="1"
     inkscape:current-layer="layer1" />
  <defs
     id="defs2" />
  <g
     inkscape:label="Layer 1"
     inkscape:groupmode="layer"
     id="layer1">
    <g
       id="g4679"
       transform="matrix(0.26458333,0,0,0.26458333,-7.9262405,-8.7681884)">
      <path
         id="polygon4665"
         d="m 428.576,1325.611 -29.223,80.794 29.23,80.793 H 757.551 L 1274.64,970.108 1160.381,855.849 690.618,1325.611 Z" />
      <path
         id="polygon4667"
         d="m 2164.726,342.06 29.229,-80.794 -29.224,-80.794 h -328.974 l -517.09,517.091 114.26,114.259 469.761,-469.762 z" />
      <path
         d="m 2227.061,261.267 -82.257,227.37 C 2263.799,397.651 2424.25,315.797 2561.799,261.261 2423.936,206.562 2263.596,124.673 2144.798,33.836 Z"
         id="path4669" />
      <path
         d="m 448.509,1178.974 c -118.799,90.836 -279.134,172.724 -417,227.425 137.533,54.527 297.997,136.388 416.995,227.376 l -82.257,-227.37 z"
         id="path4671" />
      <path
         id="polygon4673"
         d="m 2193.955,1406.405 -29.229,-80.794 H 1902.688 L 757.551,180.472 H 428.583 l -29.23,80.795 29.223,80.793 h 262.043 l 1145.138,1145.138 h 328.974 z" />
      <path
         d="M 366.247,261.265 448.504,33.895 C 329.497,124.891 169.028,206.749 31.509,261.272 c 137.87,54.702 298.202,136.589 417,227.425 z"
         id="path4675" />
      <path
         d="m 2144.804,1179.035 82.257,227.37 -82.263,227.431 c 118.835,-90.862 279.172,-172.741 417.001,-227.425 -137.556,-54.539 -297.995,-136.389 -416.995,-227.376 z"
         id="path4677" />
    </g>
    <g
       aria-label="AVIVA"
       id="text2862"
       style="font-weight:bold;font-size:141.111px;line-height:1.25;-inkscape-font-specification:'sans-serif, Bold';fill:#00c000;stroke:#000000;stroke-width:1.32292">
      <path
         d="m 187.21452,263.14807 h -27.35404 l -7.09689,-20.73946 h -38.03382 l -7.09689,20.73946 H 80.967861 L 118.86388,160.55321 h 30.45462 z m -40.8588,-39.54966 -12.60904,-36.79359 -12.60904,36.79359 z"
         id="path834" />
      <path
         d="m 294.97702,160.55321 -37.41371,102.59486 h -29.6278 l -37.4137,-102.59486 h 27.76744 l 24.80467,72.07134 24.80467,-72.07134 z"
         id="path836" />
      <path
         d="m 365.188,263.14807 h -60.08242 v -18.19009 h 16.81205 V 178.7433 H 305.10558 V 160.55321 H 365.188 v 18.19009 h -16.81206 v 66.21468 H 365.188 Z"
         id="path838" />
      <path
         d="m 479.77179,160.55321 -37.4137,102.59486 h -29.6278 l -37.4137,-102.59486 h 27.76744 l 24.80467,72.07134 24.80466,-72.07134 z"
         id="path840" />
      <path
         d="m 589.32572,263.14807 h -27.35403 l -7.09689,-20.73946 h -38.03383 l -7.09689,20.73946 h -26.66501 l 37.89602,-102.59486 h 30.45461 z m -40.8588,-39.54966 -12.60903,-36.79359 -12.60904,36.79359 z"
         id="path842" />
    </g>
  </g>
</svg>
